<svg aria-hidden="true" style="position: absolute; width: 0; height: 0; overflow: hidden;" version="1.1" xmlns="http://www.w3.org/2000/svg" xmlns:xlink="http://www.w3.org/1999/xlink">
<defs>
<symbol id="gb-cupStar" viewBox="0 0 32 32">
<path d="M15 24.333h-3c-1.467 0-2.667 1.2-2.667 2.667v0.333h-1.333c-0.547 0-1 0.453-1 1s0.453 1 1 1h16c0.547 0 1-0.453 1-1s-0.453-1-1-1h-1.333v-0.333c0-1.467-1.2-2.667-2.667-2.667h-3v-3.053c-0.333 0.040-0.667 0.053-1 0.053s-0.667-0.013-1-0.053v3.053z"></path>
<path d="M24.637 15.52c0.88-0.333 1.653-0.88 2.267-1.493 1.24-1.373 2.053-3.013 2.053-4.933s-1.507-3.427-3.427-3.427h-0.747c-0.867-1.773-2.68-3-4.787-3h-8c-2.107 0-3.92 1.227-4.787 3h-0.747c-1.92 0-3.427 1.507-3.427 3.427s0.813 3.56 2.053 4.933c0.613 0.613 1.387 1.16 2.267 1.493 1.387 3.413 4.72 5.813 8.64 5.813s7.253-2.4 8.64-5.813zM19.784 11.266l-0.827 1.013c-0.133 0.147-0.227 0.44-0.213 0.64l0.080 1.307c0.053 0.8-0.52 1.213-1.267 0.92l-1.213-0.48c-0.187-0.067-0.507-0.067-0.693 0l-1.213 0.48c-0.747 0.293-1.32-0.12-1.267-0.92l0.080-1.307c0.013-0.2-0.080-0.493-0.213-0.64l-0.827-1.013c-0.52-0.613-0.293-1.293 0.48-1.493l1.267-0.32c0.2-0.053 0.44-0.24 0.547-0.413l0.707-1.093c0.44-0.68 1.133-0.68 1.573 0l0.707 1.093c0.107 0.173 0.347 0.36 0.547 0.413l1.267 0.32c0.773 0.2 1 0.88 0.48 1.493z"></path>
</symbol>
<symbol id="gb-edit" viewBox="0 0 32 32">
<path d="M11.336 30.272l15.62-20.2c0.849-1.089 1.151-2.349 0.868-3.631-0.245-1.166-0.962-2.274-2.037-3.115l-2.622-2.083c-2.283-1.815-5.113-1.624-6.735 0.459l-1.754 2.276c-0.226 0.285-0.17 0.705 0.113 0.934 0 0 4.433 3.555 4.528 3.631 0.302 0.287 0.528 0.669 0.585 1.128 0.094 0.898-0.528 1.739-1.453 1.854-0.434 0.057-0.849-0.076-1.151-0.325l-4.66-3.707c-0.226-0.17-0.566-0.134-0.755 0.096l-11.074 14.333c-0.717 0.898-0.962 2.064-0.717 3.191l1.415 6.134c0.075 0.325 0.358 0.554 0.698 0.554l6.225-0.076c1.132-0.019 2.188-0.535 2.905-1.452zM20.053 28.361h10.151c0.99 0 1.796 0.816 1.796 1.819 0 1.005-0.805 1.819-1.796 1.819h-10.151c-0.99 0-1.796-0.814-1.796-1.819 0-1.003 0.805-1.819 1.796-1.819z"></path>
</symbol>
<symbol id="gb-send" viewBox="0 0 32 32">
<path d="M31.097 0.931c-0.8-0.821-1.985-1.127-3.089-0.805l-25.755 7.489c-1.165 0.324-1.991 1.253-2.214 2.434-0.227 1.202 0.567 2.727 1.604 3.365l8.053 4.949c0.826 0.507 1.892 0.38 2.575-0.309l9.221-9.279c0.464-0.483 1.232-0.483 1.697 0 0.464 0.467 0.464 1.224 0 1.707l-9.237 9.28c-0.685 0.688-0.813 1.759-0.309 2.59l4.92 8.134c0.576 0.966 1.569 1.514 2.657 1.514 0.128 0 0.272 0 0.4-0.016 1.248-0.161 2.241-1.015 2.609-2.223l7.635-25.722c0.336-1.095 0.032-2.287-0.768-3.108z"></path>
</symbol>
<symbol id="gb-trash" viewBox="0 0 29 32">
<path d="M27.659 5.189c0.622 0 1.141 0.517 1.141 1.174v0.608c0 0.642-0.518 1.174-1.141 1.174h-26.517c-0.624 0-1.142-0.533-1.142-1.174v-0.608c0-0.658 0.518-1.174 1.142-1.174h4.665c0.948 0 1.772-0.674 1.986-1.624l0.244-1.091c0.38-1.486 1.629-2.474 3.059-2.474h6.607c1.415 0 2.678 0.987 3.044 2.395l0.261 1.168c0.212 0.952 1.036 1.626 1.986 1.626h4.665zM25.289 27.414c0.487-4.539 1.34-15.323 1.34-15.432 0.031-0.33-0.076-0.642-0.289-0.893-0.229-0.235-0.518-0.374-0.837-0.374h-22.193c-0.321 0-0.626 0.139-0.837 0.374-0.215 0.251-0.321 0.563-0.305 0.893 0.003 0.020 0.033 0.4 0.085 1.035 0.227 2.821 0.86 10.679 1.269 14.397 0.289 2.739 2.087 4.461 4.69 4.523 2.009 0.046 4.079 0.062 6.195 0.062 1.993 0 4.018-0.016 6.089-0.062 2.694-0.046 4.489-1.738 4.794-4.523z"></path>
</symbol>
<symbol id="gb-chess" viewBox="0 0 33 32">
<path d="M5.098 7.031c-0.36 0.272-0.474 0.763-0.272 1.166l1.526 3.116h3.752l1.526-3.115c0.202-0.404 0.087-0.894-0.273-1.167l-2.192-1.661v-1.619h0.938c0.518 0 0.938-0.419 0.938-0.938s-0.419-0.938-0.938-0.938h-0.938v-0.938c0-0.518-0.419-0.938-0.938-0.938s-0.938 0.419-0.938 0.938v0.938h-0.938c-0.518 0-0.938 0.419-0.938 0.938s0.419 0.938 0.938 0.938h0.938v1.619l-2.192 1.661z"></path>
<path d="M30.792 28.25h-11.313c-1.036 0-1.875 0.839-1.875 1.875v0.937c0 0.518 0.42 0.937 0.937 0.937h13.188c0.518 0 0.937-0.42 0.937-0.937v-0.937c0-1.036-0.839-1.875-1.875-1.875z"></path>
<path d="M26.176 5.763c-0.278-0.036-0.544 0.043-0.747 0.22-0.207 0.178-0.324 0.437-0.324 0.709v0.871h-1.406c-0.295 0-0.573 0.139-0.751 0.375l-3.569 4.758c-0.922 1.233-0.507 3 0.871 3.69 0.685 0.341 1.523 0.341 2.208 0l2.646-1.323-1.648 1.648c-2.598 2.599-3.975 6.077-3.963 9.664l11.299 0.001c0.006 0 0.011 0.002 0.017 0.002-1.168-2.352-1.205-5.212-0.043-7.577l1.137-2.307c0.507-1.033 0.763-2.144 0.763-3.305 0-3.706-2.827-6.898-6.491-7.424zM25.104 12.25c-0.518 0-0.938-0.42-0.938-0.938s0.42-0.938 0.938-0.938 0.937 0.42 0.937 0.938c0 0.518-0.42 0.938-0.937 0.938z"></path>
<path d="M13.854 28.25h-11.312c-1.036 0-1.875 0.839-1.875 1.875v0.937c0 0.518 0.42 0.937 0.938 0.937h13.188c0.518 0 0.937-0.42 0.937-0.937v-0.937c0-1.036-0.839-1.875-1.875-1.875z"></path>
<path d="M6.354 13.188v1.677c0 0.066-0.007 0.132-0.007 0.198h3.764c-0.001-0.066-0.007-0.132-0.007-0.198v-1.677h-3.75z"></path>
<path d="M13.453 26.375c-1.463-2.307-2.443-4.91-2.944-7.562h0.531c0.518 0 0.938-0.42 0.938-0.938s-0.42-0.937-0.938-0.937c-0.335 0-5.843 0-5.625 0-0.518 0-0.938 0.42-0.938 0.937s0.42 0.937 0.938 0.937h0.531c-0.501 2.652-1.543 5.256-3.006 7.563h10.513z"></path>
</symbol>
<symbol id="gb-formula" viewBox="0 0 33 32">
<path d="M21.723 0.907c-0.131 0.191-5.305 7.698-5.031 7.3-0.19-0.276-5.308-7.701-5.031-7.3l-9.263 6.384 4.255 6.175 7.719-5.32 1.181 1.713-2.341 3.398 1.545 1.064 1.935-2.809 1.936 2.809 1.545-1.064-2.342-3.399 1.18-1.713 7.719 5.32 4.255-6.175-9.263-6.384z"></path>
<path d="M3.479 31.109c1.553 0 2.813-1.259 2.813-2.812s-1.259-2.813-2.813-2.813-2.813 1.259-2.813 2.813c0 1.553 1.259 2.812 2.813 2.812z"></path>
<path d="M24.167 31.109c1.553 0 2.813-1.259 2.813-2.812s-1.259-2.813-2.813-2.813-2.813 1.259-2.813 2.813c0 1.553 1.259 2.812 2.813 2.812z"></path>
<path d="M29.854 25.484h-1.961c0.595 0.786 0.961 1.753 0.961 2.813 0 0.321-0.033 0.634-0.095 0.937h3.907v-0.937c0-1.553-1.259-2.813-2.813-2.813z"></path>
<path d="M4.417 23.704v-1.032c0-1.553-1.259-2.813-2.813-2.813h-0.938v4.711c0.786-0.595 1.753-0.961 2.813-0.961 0.321 0 0.634 0.033 0.938 0.095z"></path>
<path d="M12.138 17.984c-0.055 0-0.105 0.015-0.159 0.016v3.734h3.75v-3.75h-3.591z"></path>
<path d="M6.292 23.769v0.801c0.894 0.676 1.548 1.652 1.78 2.789h11.502c0.267-1.308 1.088-2.404 2.197-3.070-1.199-0.431-2.477-0.68-3.797-0.68-0.339 0-8.351 0-7.87 0v-5.237c-2.185 0.827-3.812 2.925-3.812 5.397z"></path>
</symbol>
<symbol id="gb-darts" viewBox="0 0 33 32">
<path d="M16.667 0c-8.822 0-16 7.178-16 16s7.178 16 16 16c8.822 0 16-7.178 16-16s-7.178-16-16-16zM16.667 30.125c-7.789 0-14.125-6.337-14.125-14.125s6.336-14.125 14.125-14.125c7.789 0 14.125 6.336 14.125 14.125s-6.337 14.125-14.125 14.125z"></path>
<path d="M16.667 5.422c-5.833 0-10.578 4.745-10.578 10.578s4.745 10.578 10.578 10.578c5.833 0 10.578-4.745 10.578-10.578s-4.745-10.578-10.578-10.578zM16.667 24.703c-4.799 0-8.703-3.904-8.703-8.703s3.904-8.703 8.703-8.703c4.799 0 8.703 3.904 8.703 8.703s-3.904 8.703-8.703 8.703z"></path>
<path d="M16.666 10.902c-2.811 0-5.098 2.287-5.098 5.098s2.287 5.098 5.098 5.098c2.811 0 5.098-2.287 5.098-5.098s-2.287-5.098-5.098-5.098zM16.666 19.223c-1.777 0-3.223-1.446-3.223-3.223s1.446-3.223 3.223-3.223c1.777 0 3.223 1.446 3.223 3.223s-1.446 3.223-3.223 3.223z"></path>
</symbol>
<symbol id="gb-golf" viewBox="0 0 33 32">
<path d="M16.053 30.907c0.897 0 16.614-0.621 16.614-3.241s-8.407-1.328-8.4-3.567c-0.007-0.83 3.406-0.552 2.493-2.157-0.805-1.333-11.81-1.172-11.81-1.172s-2.313 0.011-5.076 0.353v-9.497c3.168-1.564 11.545-6.416 7.388-6.123-3.537 0.249-6.046-0.981-7.388-1.887v-1.674c0-0.468-0.38-0.847-0.847-0.847s-0.847 0.379-0.847 0.847v19.428c-3.69 0.625-7.513 1.899-7.513 4.503 0 5.034 14.49 5.034 15.386 5.034zM8.18 23.653v0.876c0 0.468 0.379 0.847 0.847 0.847s0.847-0.379 0.847-0.847v-0.912c1.505 0.129 2.636 0.678 2.636 1.335 0 0.754-1.485 1.365-3.318 1.365s-3.318-0.611-3.318-1.365c0-0.609 0.968-1.124 2.306-1.299z"></path>
</symbol>
<symbol id="gb-popularRegions" viewBox="0 0 32 32">
<path d="M16 0c-3.165 0-6.258 0.938-8.889 2.696s-4.682 4.257-5.893 7.181c-1.211 2.924-1.528 6.141-0.91 9.244s2.141 5.955 4.379 8.192c2.238 2.238 5.089 3.761 8.192 4.379s6.321 0.301 9.244-0.91c2.924-1.211 5.423-3.262 7.181-5.893s2.696-5.725 2.696-8.889c-0.005-4.242-1.692-8.309-4.691-11.309s-7.067-4.687-11.309-4.691v0zM16 29.333c-1.772 0.001-3.526-0.352-5.159-1.039s-3.112-1.694-4.351-2.961l1.94-1.629c0.197-0.166 0.342-0.385 0.417-0.631s0.078-0.508 0.007-0.756l-0.933-3.296c-0.059-0.203-0.164-0.39-0.308-0.545l-1.648-1.761-0.249-0.425 0.853-0.729 3.316-1.677c0.19-0.096 0.355-0.237 0.48-0.41s0.206-0.374 0.238-0.585l0.533-3.653c0.030-0.197 0.015-0.398-0.043-0.589s-0.158-0.366-0.293-0.513l-2.199-2.347c-0.039-0.043-0.081-0.082-0.125-0.119l-0.424-0.348c2.141-1.601 4.716-2.516 7.387-2.625l0.597 0.993 0.781 2.284c0.082 0.238 0.23 0.448 0.425 0.607l3.045 2.449c0.237 0.191 0.532 0.295 0.836 0.295 0.053 0 0.105-0.003 0.157-0.009l4-0.475c0.176-0.021 0.346-0.077 0.5-0.164l0.957-0.544c1.462 1.984 2.344 4.334 2.549 6.79s-0.277 4.92-1.39 7.118c-1.113 2.198-2.815 4.044-4.916 5.332s-4.518 1.968-6.982 1.963z"></path>
<path d="M26.525 16.588l-1.513-2.904c-0.088-0.17-0.212-0.318-0.363-0.436s-0.325-0.201-0.511-0.246l-3.143-0.752c-0.249-0.060-0.511-0.046-0.752 0.040l-2.969 1.043c-0.236 0.082-0.445 0.23-0.601 0.425l-1.784 2.631c-0.19 0.384-0.225 0.827-0.097 1.236l1.083 2.749-0.667 2.292c-0.047 0.194-0.048 0.397-0.005 0.592s0.131 0.378 0.255 0.534l0.876 2.313c0.125 0.152 0.282 0.274 0.46 0.358s0.372 0.127 0.569 0.127h0.085l3.119-0.2c0.308-0.020 0.599-0.146 0.824-0.356l2.349-2.188c0.132-0.122 0.237-0.269 0.311-0.433l2.509-5.667c0.082-0.183 0.121-0.383 0.115-0.583s-0.058-0.397-0.151-0.575z"></path>
</symbol>
<symbol id="gb-rugby" viewBox="0 0 32 32">
<path d="M21.012 0.373c1.816-0.272 3.535-0.37 5.065-0.37 0.811 0 1.622 0.029 2.41 0.085 1.823 0.13 3.295 1.603 3.425 3.425 0.139 1.943 0.157 4.57-0.279 7.481l-10.621-10.621zM0.367 21.006c-0.436 2.911-0.418 5.538-0.279 7.481 0.13 1.823 1.603 3.295 3.425 3.425 0.788 0.056 1.598 0.085 2.41 0.085 0 0 0 0 0.001 0 1.53 0 3.249-0.098 5.064-0.37l-10.621-10.621zM31.237 13.124c-0.88 3.951-2.674 8.225-6.139 11.931-0.014 0.015-0.028 0.029-0.043 0.042-3.69 3.45-7.956 5.25-11.937 6.134l-12.355-12.355c0.88-3.951 2.674-8.224 6.14-11.931 0.014-0.015 0.028-0.029 0.043-0.043 3.69-3.45 7.956-5.25 11.937-6.134l12.355 12.355zM22.623 13.193l-1.277-1.277 0.993-0.993c0.349-0.349 0.349-0.914 0-1.263s-0.914-0.349-1.263 0l-0.993 0.993-1.277-1.277c-0.349-0.348-0.914-0.349-1.263 0s-0.349 0.914 0 1.263l1.277 1.277-1.46 1.459-1.277-1.277c-0.349-0.348-0.914-0.349-1.263 0s-0.349 0.914 0 1.263l1.277 1.277-1.46 1.459-1.277-1.277c-0.349-0.349-0.914-0.349-1.263 0s-0.349 0.914 0 1.263l1.277 1.277-1.46 1.459-1.277-1.277c-0.349-0.349-0.914-0.349-1.263 0s-0.349 0.914 0 1.263l1.277 1.277-0.993 0.993c-0.349 0.349-0.349 0.914 0 1.263 0.174 0.174 0.403 0.261 0.631 0.261s0.457-0.087 0.631-0.261l0.993-0.993 1.277 1.277c0.175 0.174 0.403 0.261 0.631 0.261s0.457-0.087 0.631-0.261c0.349-0.349 0.349-0.914 0-1.263l-1.277-1.277 1.46-1.46 1.277 1.277c0.175 0.174 0.403 0.261 0.631 0.261s0.457-0.087 0.631-0.261c0.349-0.349 0.349-0.914 0-1.263l-1.277-1.277 1.459-1.46 1.277 1.277c0.174 0.174 0.403 0.261 0.631 0.261s0.457-0.087 0.631-0.261c0.349-0.349 0.349-0.914 0-1.263l-1.277-1.277 1.46-1.46 1.277 1.277c0.175 0.174 0.403 0.261 0.631 0.261s0.457-0.087 0.631-0.261c0.348-0.349 0.348-0.914-0.001-1.263z"></path>
</symbol>
<symbol id="gb-statistic" viewBox="0 0 37 32">
<path d="M35.048 27.429h-33.524c-0.842 0-1.524 0.682-1.524 1.524s0.682 1.524 1.524 1.524h33.524c0.842 0 1.524-0.682 1.524-1.524s-0.682-1.524-1.524-1.524z"></path>
<path d="M6.095 24.381h3.048c0.841 0 1.524-0.683 1.524-1.524v-13.714c0-0.841-0.683-1.524-1.524-1.524h-3.048c-0.841 0-1.524 0.683-1.524 1.524v13.714c0 0.841 0.683 1.524 1.524 1.524z"></path>
<path d="M16.76 24.381h3.048c0.841 0 1.524-0.683 1.524-1.524v-21.333c0-0.841-0.683-1.524-1.524-1.524h-3.048c-0.841 0-1.524 0.683-1.524 1.524v21.333c0 0.841 0.683 1.524 1.524 1.524z"></path>
<path d="M25.906 15.238v7.619c0 0.841 0.683 1.524 1.524 1.524h3.048c0.841 0 1.524-0.683 1.524-1.524v-7.619c0-0.841-0.683-1.524-1.524-1.524h-3.048c-0.841 0-1.524 0.683-1.524 1.524z"></path>
</symbol>
<symbol id="gb-calendar" viewBox="0 0 27 32">
<path d="M20.436 1.933l0.002 1.142c4.198 0.329 6.97 3.189 6.975 7.576l0.017 12.839c0.006 4.782-2.998 7.725-7.814 7.733l-11.764 0.015c-4.786 0.006-7.828-3.006-7.834-7.803l-0.017-12.688c-0.006-4.415 2.669-7.268 6.867-7.653l-0.002-1.142c-0.002-0.67 0.495-1.174 1.157-1.174 0.662-0.002 1.158 0.501 1.16 1.171l0.002 1.066 8.937-0.012-0.002-1.066c-0.002-0.67 0.495-1.173 1.157-1.174 0.647-0.002 1.158 0.501 1.16 1.171zM2.318 11.218l22.778-0.030v-0.533c-0.065-3.275-1.707-4.993-4.656-5.248l0.002 1.173c0 0.655-0.51 1.174-1.157 1.174-0.662 0.002-1.16-0.516-1.16-1.171l-0.002-1.234-8.937 0.012 0.002 1.232c0 0.656-0.495 1.174-1.157 1.174-0.662 0.002-1.16-0.515-1.16-1.171l-0.002-1.173c-2.934 0.294-4.557 2.018-4.553 5.322l0.002 0.474zM18.651 18.14v0.017c0.015 0.701 0.587 1.232 1.28 1.217 0.677-0.017 1.217-0.597 1.202-1.298-0.032-0.67-0.575-1.217-1.25-1.215-0.692 0.015-1.234 0.579-1.232 1.279zM19.894 24.979c-0.692-0.015-1.25-0.592-1.252-1.293-0.015-0.701 0.54-1.281 1.232-1.298h0.015c0.707 0 1.28 0.577 1.28 1.293 0.002 0.716-0.57 1.296-1.276 1.298zM12.453 18.165c0.030 0.701 0.603 1.247 1.295 1.217 0.677-0.032 1.217-0.611 1.187-1.311-0.017-0.685-0.573-1.218-1.25-1.217-0.692 0.030-1.234 0.611-1.232 1.311zM13.754 24.91c-0.692 0.030-1.264-0.516-1.295-1.217 0-0.701 0.54-1.279 1.232-1.311 0.677-0.002 1.235 0.531 1.25 1.215 0.032 0.702-0.51 1.281-1.187 1.313zM6.254 18.218c0.030 0.701 0.603 1.249 1.295 1.217 0.677-0.030 1.217-0.611 1.186-1.311-0.015-0.685-0.572-1.218-1.25-1.217-0.692 0.030-1.232 0.611-1.231 1.311zM7.556 24.918c-0.692 0.032-1.264-0.516-1.295-1.217-0.002-0.701 0.54-1.281 1.232-1.311 0.677-0.002 1.235 0.532 1.25 1.217 0.032 0.701-0.509 1.281-1.187 1.311z"></path>
</symbol>
<symbol id="gb-tick" viewBox="0 0 47 32">
<path stroke-linejoin="round" stroke-linecap="round" stroke-miterlimit="4" stroke-width="5.8182" d="M3.881 14.545l13.576 13.576 25.212-25.212"></path>
</symbol>
<symbol id="gb-close" viewBox="0 0 32 32">
<path stroke-linejoin="round" stroke-linecap="round" stroke-miterlimit="10" stroke-width="4" d="M2.965 29.332l26.368-26.368"></path>
<path stroke-linejoin="round" stroke-linecap="round" stroke-miterlimit="10" stroke-width="4" d="M29.037 29.035l-26.369-26.369"></path>
</symbol>
<symbol id="gb-arrowUp" viewBox="0 0 64 32">
<path fill="none" stroke-linejoin="round" stroke-linecap="round" stroke-miterlimit="4" d="M5.333 26.663l26.667-22.222 26.667 22.222"></path>
</symbol>
<symbol id="gb-cyclePlus" viewBox="0 0 32 32">
<path d="M16.002 0.762c-8.396 0-15.238 6.842-15.238 15.238s6.842 15.238 15.238 15.238c8.396 0 15.238-6.842 15.238-15.238s-6.842-15.238-15.238-15.238zM22.097 17.143h-4.952v4.952c0 0.625-0.518 1.143-1.143 1.143s-1.143-0.518-1.143-1.143v-4.952h-4.952c-0.625 0-1.143-0.518-1.143-1.143s0.518-1.143 1.143-1.143h4.952v-4.952c0-0.625 0.518-1.143 1.143-1.143s1.143 0.518 1.143 1.143v4.952h4.952c0.625 0 1.143 0.518 1.143 1.143s-0.518 1.143-1.143 1.143z"></path>
</symbol>
<symbol id="gb-people" viewBox="0 0 32 32">
<path d="M23.373 10.36c-0.093-0.013-0.187-0.013-0.28 0-2.067-0.067-3.707-1.76-3.707-3.84 0-2.12 1.72-3.853 3.853-3.853 2.12 0 3.853 1.72 3.853 3.853-0.013 2.080-1.653 3.773-3.72 3.84z"></path>
<path d="M27.719 19.6c-1.493 1-3.587 1.373-5.52 1.12 0.507-1.093 0.773-2.307 0.787-3.587 0-1.333-0.293-2.6-0.853-3.707 1.973-0.267 4.067 0.107 5.573 1.107 2.107 1.387 2.107 3.667 0.013 5.067z"></path>
<path d="M8.586 10.36c0.093-0.013 0.187-0.013 0.28 0 2.067-0.067 3.707-1.76 3.707-3.84 0-2.133-1.72-3.853-3.853-3.853-2.12 0-3.84 1.72-3.84 3.853 0 2.080 1.64 3.773 3.707 3.84z"></path>
<path d="M8.733 17.133c0 1.293 0.28 2.52 0.787 3.627-1.88 0.2-3.84-0.2-5.28-1.147-2.107-1.4-2.107-3.68 0-5.080 1.427-0.96 3.44-1.347 5.333-1.133-0.547 1.12-0.84 2.387-0.84 3.733z"></path>
<path d="M16.158 21.16c-0.107-0.013-0.227-0.013-0.347 0-2.453-0.080-4.413-2.093-4.413-4.573 0.013-2.533 2.053-4.587 4.6-4.587 2.533 0 4.587 2.053 4.587 4.587-0.013 2.48-1.96 4.493-4.427 4.573z"></path>
<path d="M11.826 23.92c-2.013 1.347-2.013 3.56 0 4.893 2.293 1.533 6.053 1.533 8.347 0 2.013-1.347 2.013-3.56 0-4.893-2.28-1.533-6.040-1.533-8.347 0z"></path>
</symbol>
<symbol id="gb-shirt" viewBox="0 0 37 32">
<path d="M3.795 13.927l-2.378-8.449 11.501-5.479h2.703c0 0 1.521 2.487 4.055 2.321s3.21-2.321 3.21-2.321h2.703l10.982 6.466-2.365 7.461-4.73-1.824v19.896h-20.612v-19.896l-5.068 1.824z"></path>
</symbol>
<symbol id="gb-wincup" viewBox="0 0 32 32">
<path d="M0 0v8c0 4.131 3.207 8 8.283 8 0.689 2.659 2.699 4.757 5.298 5.587-0.356 1.874-1.016 4.222-2.246 6.413h-3.334v4h16v-4h-3.334c-1.23-2.191-1.89-4.539-2.246-6.413 2.599-0.83 4.609-2.928 5.297-5.587 5.059 0 8.283-3.856 8.283-8v-8h-32zM4 8v-4h4v8c-2.205 0-4-1.794-4-4zM28 8c0 2.206-1.795 4-4 4v-8h4v4z"></path>
</symbol>
<symbol id="gb-popular" viewBox="0 0 20 32">
<path d="M19.837 20.819c-0.143-1.481-0.57-3.028-1.233-4.473-0.602-1.316-1.391-2.575-2.344-3.739-0.268-0.329-0.54-0.644-0.681-0.789l-0.324-0.354c-0.079-0.091-0.145-0.163-0.211-0.228l-0.097-0.098c-0.106-0.106-0.215-0.217-0.305-0.327-0.007-0.009-0.015-0.018-0.023-0.026-0.044-0.048-0.091-0.097-0.144-0.15-0.069-0.070-0.147-0.148-0.216-0.235-0.009-0.011-0.018-0.021-0.027-0.032-0.493-0.542-0.908-1.035-1.268-1.506-0.421-0.555-0.719-1.013-0.966-1.491-0.286-0.545-0.501-1.151-0.636-1.806-0.129-0.594-0.204-1.275-0.224-2.027-0.020-0.668 0.021-1.31 0.063-1.845 0.030-0.356 0.065-0.672 0.099-0.951 0.026-0.217-0.057-0.434-0.222-0.577s-0.391-0.197-0.602-0.142c-0.315 0.082-0.639 0.191-0.959 0.324-0.672 0.274-1.334 0.655-1.967 1.135-0.807 0.613-1.515 1.37-2.102 2.248-0.721 1.074-1.231 2.337-1.475 3.648-0.278 1.443-0.247 3.071 0.086 4.581 0.316 1.462 0.929 2.956 1.774 4.323 0.447 0.712 0.875 1.307 1.299 1.807 0.126 0.157 0.474 0.563 0.478 0.568l0.139 0.159c0.097 0.11 0.167 0.193 0.237 0.278 0.065 0.078 0.119 0.142 0.18 0.206l0.010 0.011c0.661 0.791 1.128 1.372 1.513 1.885 0.425 0.566 0.799 1.114 1.143 1.675 0.366 0.6 0.628 1.124 0.823 1.649 0.22 0.596 0.365 1.242 0.432 1.923 0.062 0.599 0.062 1.271 0.002 2.050-0.061 0.707-0.171 1.351-0.258 1.823-0.065 0.323-0.128 0.621-0.186 0.878-0.049 0.218 0.015 0.446 0.171 0.606 0.126 0.13 0.297 0.2 0.475 0.2 0.042 0 0.084-0.004 0.126-0.012 0.311-0.061 0.609-0.14 0.905-0.241 0.691-0.225 1.373-0.552 2.024-0.97 0.845-0.534 1.608-1.22 2.267-2.035 0.799-0.988 1.423-2.174 1.804-3.429 0.428-1.396 0.573-2.951 0.421-4.494z"></path>
<path d="M6.87 24.87c-0.275-0.603-0.636-1.178-1.069-1.707-0.109-0.134-0.241-0.288-0.306-0.355l-0.152-0.167c-0.040-0.045-0.068-0.076-0.099-0.106l-0.042-0.042c-0.048-0.048-0.097-0.098-0.138-0.147-0.007-0.009-0.015-0.017-0.023-0.026l-0.057-0.060c-0.033-0.034-0.066-0.068-0.094-0.103-0.007-0.009-0.015-0.018-0.023-0.026-0.218-0.239-0.405-0.462-0.57-0.677-0.14-0.185-0.301-0.41-0.444-0.685-0.131-0.249-0.228-0.525-0.29-0.825-0.058-0.27-0.092-0.581-0.102-0.924-0.008-0.285 0.008-0.554 0.021-0.731 0.017-0.234-0.092-0.461-0.287-0.593s-0.444-0.152-0.657-0.051c-0.245 0.117-0.485 0.263-0.715 0.437-0.368 0.28-0.691 0.625-0.958 1.025-0.23 0.342-0.533 0.908-0.673 1.663-0.127 0.66-0.114 1.404 0.038 2.093 0.145 0.668 0.424 1.351 0.811 1.977 0.204 0.324 0.399 0.596 0.587 0.817 0.055 0.069 0.175 0.207 0.228 0.269l-0.001 0.001 0.059 0.067c0.047 0.053 0.079 0.092 0.111 0.131 0.028 0.034 0.052 0.062 0.074 0.085l0.010 0.011c0.204 0.244 0.467 0.562 0.691 0.862 0.195 0.259 0.365 0.509 0.521 0.765 0.166 0.272 0.286 0.511 0.375 0.75 0.101 0.273 0.167 0.568 0.198 0.881 0.028 0.273 0.028 0.58 0.001 0.931-0.018 0.209-0.047 0.429-0.089 0.673-0.041 0.236 0.050 0.477 0.237 0.627 0.119 0.096 0.266 0.146 0.415 0.146 0.084 0 0.168-0.016 0.248-0.048 0.23-0.093 0.458-0.213 0.673-0.351 0.386-0.243 0.735-0.557 1.037-0.93 0.364-0.45 0.649-0.992 0.823-1.565 0.193-0.629 0.261-1.359 0.193-2.052-0.066-0.676-0.261-1.382-0.563-2.042z"></path>
</symbol>
<symbol id="gb-netball" viewBox="0 0 33 32">
<path d="M27.752 21.494c0.781 0 1.525 0.156 2.194 0.444 4.206-5.625 3.531-13.744-2.019-18.588-4.95-4.319-12.413-4.487-17.544-0.388-2.275 1.825-3.8 4.162-4.581 6.681l16.45 16.45c0.462-2.606 2.756-4.6 5.5-4.6z"></path>
<path d="M5.84 17.95c0.781 2.444 0.112 5.106-1.8 6.819l0.044 0.044-2.862 2.481c-0.719 0.637-0.75 1.744-0.069 2.419l1.794 1.794c0.681 0.681 1.781 0.644 2.419-0.069l2.487-2.856 0.044 0.044c1.7-1.9 4.362-2.594 6.781-1.806 2.419 0.781 5.019 0.875 7.475 0.275v-0.013c0-0.037 0-0.075 0.006-0.112l-16.569-16.569c-0.619 2.488-0.537 5.106 0.25 7.55z"></path>
<path d="M27.753 22.182c-2.713 0-4.906 2.194-4.906 4.906s2.194 4.913 4.906 4.913c2.712 0 4.906-2.194 4.906-4.906 0.006-2.719-2.194-4.913-4.906-4.913z"></path>
</symbol>
<symbol id="gb-polo" viewBox="0 0 33 32">
<path d="M16.961 16.298c0.21 0.897 0.536 1.764 0.97 2.577 3.647-1.219 6.863-3.468 9.258-6.477 0.207-1.194 0.199-2.416-0.021-3.608-2.779 4.629-8.252 6.842-10.207 7.508z"></path>
<path d="M16.863 10.63c1.324-0.2 2.594-0.665 3.733-1.368-3.981-5.522-11.889-4.61-12.81-4.48-0.465 0.705-0.844 1.462-1.13 2.255 0.492-0.069 0.988-0.104 1.484-0.103 3.28 0.039 6.413 1.366 8.723 3.696z"></path>
<path d="M17.1 11.671c-0.398 1.476-0.544 1.891-0.33 3.564 2.116-0.739 7.725-3.101 10.009-7.978-0.268-0.799-0.63-1.564-1.077-2.278-1.555 3.539-4.789 6.055-8.602 6.693z"></path>
<path d="M24.382 5.227c0.223-0.409 0.421-0.831 0.593-1.264-2.565-3.191-6.737-4.622-10.72-3.676 3.9 0.23 7.546 2.008 10.127 4.94z"></path>
<path d="M21.473 8.651c0.901-0.695 1.686-1.527 2.326-2.467-3.066-3.593-7.745-5.385-12.427-4.759-1.005 0.579-1.909 1.318-2.677 2.187 2.652-0.189 9.12-0.064 12.778 5.039z"></path>
<path d="M7.911 8.008c-0.534 0.011-1.066 0.060-1.593 0.149-0.707 2.849-0.194 5.865 1.415 8.32-0.8-3.987-0.35-6.802 0.177-8.469z"></path>
<path d="M31.78 24.675c-0.597 0.528-1.495 0.528-2.092 0-1.009-0.892-2.524-0.892-3.532 0-0.597 0.528-1.494 0.528-2.092 0-1.009-0.892-2.524-0.892-3.532 0-0.597 0.528-1.494 0.528-2.092 0-1.009-0.892-2.524-0.892-3.533 0-0.597 0.528-1.494 0.528-2.091 0-1.009-0.892-2.524-0.892-3.533 0-0.597 0.527-1.494 0.527-2.092 0-1.009-0.892-2.524-0.892-3.532 0-0.597 0.527-1.493 0.527-2.090 0-0.14-0.134-0.341-0.181-0.526-0.124s-0.324 0.209-0.365 0.398 0.025 0.385 0.17 0.513c1.009 0.892 2.524 0.892 3.532 0 0.597-0.528 1.494-0.528 2.092 0 1.009 0.892 2.524 0.892 3.532 0 0.597-0.528 1.494-0.528 2.092 0 1.009 0.892 2.524 0.892 3.532 0 0.597-0.528 1.494-0.528 2.092 0 1.009 0.892 2.524 0.892 3.533 0 0.597-0.528 1.494-0.528 2.092 0 1.009 0.892 2.524 0.892 3.532 0 0.597-0.528 1.494-0.528 2.092 0 1.008 0.891 2.522 0.891 3.531 0 0.145-0.127 0.21-0.323 0.17-0.513s-0.18-0.341-0.365-0.398c-0.185-0.057-0.386-0.009-0.525 0.124z"></path>
<path d="M31.78 29.475c-0.597 0.528-1.495 0.528-2.092 0-1.009-0.892-2.524-0.892-3.532 0-0.597 0.527-1.494 0.527-2.092 0-1.009-0.892-2.524-0.892-3.532 0-0.597 0.527-1.494 0.527-2.092 0-1.009-0.892-2.524-0.892-3.533 0-0.597 0.528-1.494 0.528-2.091 0-1.009-0.892-2.524-0.892-3.533 0-0.597 0.528-1.494 0.528-2.092 0-1.009-0.892-2.524-0.892-3.532 0-0.597 0.527-1.493 0.527-2.090 0-0.14-0.134-0.341-0.181-0.526-0.124s-0.324 0.209-0.365 0.398 0.025 0.385 0.17 0.513c1.009 0.892 2.524 0.892 3.532 0 0.597-0.528 1.495-0.528 2.092 0 1.009 0.892 2.524 0.892 3.532 0 0.597-0.528 1.494-0.528 2.092 0 1.009 0.892 2.524 0.892 3.532 0 0.597-0.528 1.495-0.528 2.092 0 1.009 0.892 2.524 0.892 3.533 0 0.597-0.528 1.495-0.528 2.092 0 1.009 0.892 2.524 0.892 3.532 0 0.597-0.528 1.494-0.528 2.092 0 1.008 0.891 2.522 0.891 3.531 0 0.145-0.127 0.21-0.323 0.17-0.513s-0.18-0.341-0.365-0.398c-0.185-0.057-0.386-0.009-0.525 0.124z"></path>
<path d="M32.502 20.662c-1.009 0.889-2.522 0.889-3.531 0-0.599-0.528-1.497-0.528-2.096 0-1.008 0.891-2.522 0.891-3.531 0-0.597-0.528-1.494-0.528-2.091 0-1.010 0.891-2.526 0.891-3.536 0-0.597-0.528-1.494-0.528-2.091 0-1.008 0.891-2.522 0.891-3.531 0-0.597-0.528-1.494-0.528-2.091 0-1.010 0.891-2.526 0.891-3.536 0-0.597-0.528-1.494-0.528-2.091 0-1.008 0.891-2.522 0.891-3.531 0-0.105-0.095-0.168-0.228-0.174-0.369s0.045-0.279 0.142-0.383c0.198-0.217 0.534-0.234 0.752-0.037 0.597 0.528 1.494 0.528 2.091 0 1.008-0.891 2.522-0.891 3.531 0 0.597 0.528 1.494 0.528 2.091 0 0.321-0.284 0.708-0.484 1.125-0.581-0.39-0.284-0.762-0.593-1.115-0.923-1.499-5.189-0.88-8.587-0.272-10.325 1.026 0.089 2.034 0.319 2.997 0.683-0.842 3.72-0.556 7.606 0.821 11.163 0.358 0.309 0.836 0.441 1.301 0.357-1.527-3.487-1.923-7.365-1.131-11.088 1.143 0.551 2.182 1.294 3.072 2.197-0.532 1.504-0.626 3.127-0.272 4.683 0.211 1.111 0.583 2.185 1.104 3.189 0.551 0.041 1.074 0.258 1.493 0.619 3.065-1.053 5.844-2.804 8.117-5.115-0.753 1.821-1.993 3.398-3.584 4.56 0.417 0.098 0.804 0.297 1.125 0.581 0.597 0.528 1.494 0.528 2.091 0 1.008-0.891 2.522-0.891 3.531 0 0.597 0.528 1.494 0.528 2.091 0 0.218-0.198 0.556-0.183 0.755 0.034s0.186 0.555-0.030 0.755z"></path>
</symbol>
<symbol id="gb-snooker" viewBox="0 0 33 32">
<path d="M32.383 26.576l-12.795-23.99c-1.12-2.559-4.798-2.559-5.918 0l-12.795 23.99c-0.8 2.079 0.8 4.478 3.039 4.478h25.589c2.239 0 3.838-2.399 2.879-4.478zM24.706 16.66c0 1.759-1.439 3.199-3.199 3.199s-3.199-1.439-3.199-3.199c0-1.759 1.439-3.199 3.199-3.199s3.199 1.439 3.199 3.199zM16.709 5.465c1.759 0 3.199 1.439 3.199 3.199s-1.439 3.199-3.199 3.199c-1.759 0-3.199-1.439-3.199-3.199s1.439-3.199 3.199-3.199zM8.712 27.855c-1.759 0-3.199-1.439-3.199-3.199s1.439-3.199 3.199-3.199c1.759 0 3.199 1.439 3.199 3.199s-1.439 3.199-3.199 3.199zM8.712 16.66c0-1.759 1.439-3.199 3.199-3.199s3.199 1.439 3.199 3.199c0 1.759-1.439 3.199-3.199 3.199s-3.199-1.439-3.199-3.199zM16.709 27.855c-1.759 0-3.199-1.439-3.199-3.199s1.439-3.199 3.199-3.199c1.759 0 3.199 1.439 3.199 3.199s-1.44 3.199-3.199 3.199zM24.706 27.855c-1.759 0-3.199-1.439-3.199-3.199s1.439-3.199 3.199-3.199c1.759 0 3.199 1.439 3.199 3.199s-1.439 3.199-3.199 3.199z"></path>
</symbol>
<symbol id="gb-mma" viewBox="0 0 32 32">
<path d="M12.44 23.398c-0.002 0.002-0.005 0.005-0.008 0.007l0.3 1.705 1.705 0.299c0.003-0.002 0.005-0.005 0.007-0.007l-0.325-1.678-1.679-0.326z"></path>
<path d="M27.54 10.301c-6.618-6.618-10.417-3.217-11.030-0.909-0.293 1.103-0.265 1.562-0.265 1.562-0.995-0.49-3.534-1.178-5.715 6.824l-4.69 5.774c1.051 1.814 2.257 3.4 3.653 4.797s2.983 2.601 4.796 3.652l5.774-4.69c1.874-0.871 4.919-1.215 6.866-3.163 3.992-3.992 6.601-7.856 0.61-13.846zM18.186 24.509c-0.394 0.393-1.031 0.393-1.425 0-0.093-0.093-0.164-0.2-0.212-0.314l-1.231-0.239 0.238 1.231c0.114 0.050 0.221 0.12 0.314 0.213 0.394 0.393 0.394 1.031 0 1.425s-1.031 0.394-1.425 0c-0.089-0.089-0.156-0.19-0.205-0.298l-1.301-0.228 0.228 1.301c0.108 0.048 0.21 0.116 0.298 0.205 0.393 0.393 0.393 1.031-0 1.425s-1.031 0.393-1.425 0c-0.394-0.394-0.394-1.031 0-1.425 0.003-0.004 0.007-0.006 0.010-0.010l-0.299-1.705-1.705-0.3c-0.003 0.003-0.006 0.007-0.009 0.011-0.394 0.394-1.031 0.394-1.425-0s-0.394-1.031 0-1.425c0.394-0.394 1.031-0.394 1.425 0 0.089 0.088 0.156 0.19 0.205 0.298l1.301 0.229-0.229-1.301c-0.108-0.048-0.209-0.116-0.298-0.205-0.393-0.393-0.394-1.031 0-1.425s1.031-0.393 1.425 0c0.093 0.093 0.164 0.2 0.213 0.315l1.231 0.238-0.239-1.231c-0.114-0.049-0.221-0.12-0.314-0.213-0.393-0.394-0.393-1.031 0-1.425s1.031-0.393 1.425 0c0.393 0.393 0.393 1.029 0.002 1.422l0.325 1.678 1.679 0.326c0.394-0.391 1.030-0.39 1.422 0.002 0.393 0.393 0.393 1.031 0 1.425z"></path>
<path d="M7.89 19.413l-0.427-0.55-1.645 0.468c-0.001 0.004-0.002 0.007-0.003 0.010l1.023 1.367 1.052-1.295z"></path>
<path d="M4.116 21.288c0.119 0.039 0.225 0.099 0.318 0.174l1.264-0.385-0.792-1.057c-0.118 0.005-0.239-0.009-0.358-0.048-0.529-0.173-0.817-0.742-0.644-1.271s0.742-0.817 1.271-0.644c0.125 0.041 0.237 0.105 0.332 0.185l1.206-0.344-0.769-0.99c-0.124 0.008-0.251-0.006-0.377-0.047-0.529-0.173-0.817-0.742-0.644-1.271s0.742-0.817 1.271-0.644c0.527 0.173 0.815 0.739 0.644 1.267l1.049 1.351 1.644-0.469c0.051-0.154 0.137-0.287 0.245-0.395 0.927-3.042 1.904-4.703 1.904-4.703s-1.008-2.695-4.081-1.495c3.638-1.723 0.995-4.48 0.995-4.48s3.128 2.381 6.15 3.681c0.149-0.022 0.3-0.035 0.452-0.035 0.065 0 0.129 0.002 0.194 0.006 0.036-0.165 0.080-0.346 0.132-0.544 0.421-1.586 1.862-3.279 4.11-3.641-0.747-1.677-2.533-3.443-6.263-4.665-8.050-2.638-10.319 1.436-12.077 6.8-0.857 2.618 0.211 5.49 0.281 7.555l-1.575 7.269c1.757 1.143 3.549 2.014 5.425 2.628 0.063 0.021 0.127 0.041 0.191 0.061-0.225-0.349-0.444-0.708-0.658-1.076l-0.352-0.608 0.927-1.142-0.77 0.234c-0.002 0.004-0.002 0.009-0.004 0.013-0.173 0.529-0.742 0.817-1.271 0.644s-0.817-0.742-0.644-1.271c0.173-0.529 0.742-0.817 1.271-0.644z"></path>
</symbol>
<symbol id="gb-cricket" viewBox="0 0 33 32">
<path d="M30.97 22.428c-2.281-2.281-5.826-2.132-7.919-0.038-2.182 2.181-2.182 5.775 0 7.957 2.198 2.198 5.758 2.199 7.957 0 2.123-2.123 2.281-5.601-0.038-7.919z"></path>
<path d="M1.489 27.199c-1.097 1.097-1.097 2.882 0 3.979s2.882 1.097 3.979 0l6.218-6.218-3.979-3.979-6.218 6.218z"></path>
<path d="M9.035 15.676c-0.144 0.143-0.236 0.33-0.265 0.53l-0.398 2.785 5.304 5.304 2.785-0.398c0.201-0.029 0.387-0.121 0.53-0.265l0.663-0.663-7.957-7.957-0.663 0.663z"></path>
<path d="M30.583 2.083c-1.662-1.662-4.988-2.97-6.631-1.326l-10.278 10.278 7.957 7.957 10.278-10.278c1.644-1.643 0.335-4.969-1.326-6.631z"></path>
<path d="M11.023 13.687l1.326-1.326 7.957 7.957-1.326 1.326-7.957-7.957z"></path>
</symbol>
<symbol id="gb-handball" viewBox="0 0 31 32">
<path d="M27.272 14.364v-5.133c0-1.667-1.529-2.959-3.186-2.569v-0.142c0-0.926-0.489-1.743-1.223-2.202h-0.338c-0.226 0-1.129-0.292-1.809 0.267-0.645 0.531-0.816 1.62-0.816 2.122v2.645c0 0.379-0.296 0.703-0.675 0.71-0.386 0.007-0.7-0.303-0.7-0.687 0-0.515-0.431-0.931-0.951-0.905-0.487 0.024-0.86 0.444-0.86 0.931v8.081c0 0.38-0.308 0.687-0.687 0.687h-0.925c-0.794 0-1.44 0.647-1.44 1.441 0 5.015-0.078 5.285 0.382 5.772 0.453 0.479 0.985 0.933 1.571 1.572 0.143 0.143 0.1-0.059 0.1 4.024 0 0.551 0.446 0.999 0.997 1 9.544 0.024 8.48 0.021 8.562 0.021 0.551 0 1-0.447 1-1 0.030-3.807-0.066-3.668 0.083-3.841l1.634-1.908c1.084-1.265 1.68-2.876 1.68-4.542v-3.519c0-1.421-1.040-2.603-2.398-2.825z"></path>
<path d="M13.699 24.505c-0-0.003-0.001-0.006-0.001-0.009 0.001 0.003 0.001 0.006 0.001 0.009z"></path>
<path d="M2.612 12.844c4.821-1.833 10.156-6.777 11.282-11.799 0.236-1.048 0.205-0.911 0.211-0.932-7.792-1.069-14.361 5.637-13.331 13.307 0.729-0.22 1.648-0.503 1.838-0.576z"></path>
<path d="M2.445 18.070c2.089 3.375 5.798 5.536 9.856 5.601-0.020-1.159-0.015-1.787-0.015-4.060 0-1.553 1.263-2.816 2.815-2.816h0.238v-1.928c-4.781 2.173-9.851 3.204-12.894 3.204z"></path>
<path d="M16.055 0.551c-0.004 0.022-0.066 0.296-0.21 0.933-1.279 5.71-7.068 11.156-12.522 13.23-0.303 0.115-1.53 0.488-2.113 0.664 0.073 0.233 0.155 0.465 0.243 0.696 0.051-0.004-0.066-0.003 1.531-0.003 6.711-0.461 12.038-3.301 12.354-3.403v-3.292c0-1.646 1.693-2.742 3.186-2.094v-0.574c0-1.426 0.631-3 1.975-3.589-1.292-1.186-2.814-2.054-4.446-2.568z"></path>
</symbol>
<symbol id="gb-hockey" viewBox="0 0 40 32">
<path d="M33.284 2.766c-3.567-1.784-8.285-2.766-13.284-2.766s-9.717 0.982-13.284 2.766c-3.815 1.907-5.916 4.534-5.916 7.397s2.101 5.489 5.916 7.397c3.567 1.784 8.285 2.766 13.284 2.766s9.717-0.982 13.284-2.766c3.815-1.907 5.916-4.534 5.916-7.397s-2.101-5.489-5.916-7.397z"></path>
<path d="M34.29 19.572c-3.873 1.937-8.949 3.003-14.29 3.003s-10.417-1.067-14.29-3.003c-2.058-1.029-3.707-2.262-4.91-3.67v5.105c0 2.862 2.101 5.489 5.916 7.397 3.567 1.783 8.285 2.766 13.284 2.766s9.717-0.982 13.284-2.766c3.815-1.908 5.916-4.534 5.916-7.397v-5.105c-1.202 1.407-2.852 2.641-4.91 3.67z"></path>
</symbol>
<symbol id="gb-basketball" viewBox="0 0 33 32">
<path d="M22 22.4c0.912 2.068 2.254 3.919 3.936 5.429 0.169 0.161 0.348 0.305 0.527 0.449 0.070 0.056 0.14 0.113 0.209 0.169-2.817 2.318-6.357 3.575-10.005 3.552-3.637 0.016-7.165-1.24-9.973-3.552 0.245-0.192 0.491-0.395 0.715-0.608 1.681-1.513 3.019-3.368 3.925-5.44h0.821c0.283 0 0.554-0.112 0.754-0.312s0.312-0.471 0.312-0.754-0.112-0.554-0.312-0.754c-0.2-0.2-0.471-0.312-0.754-0.312h-0.075c0.292-1.045 0.477-2.117 0.555-3.2h0.597c0.283 0 0.554-0.112 0.754-0.312s0.312-0.471 0.312-0.754-0.112-0.554-0.312-0.754c-0.2-0.2-0.471-0.312-0.754-0.312h-0.597c-0.071-1.083-0.257-2.156-0.555-3.2h0.075c0.283 0 0.554-0.112 0.754-0.312s0.312-0.471 0.312-0.754c0-0.283-0.112-0.554-0.312-0.754s-0.471-0.312-0.754-0.312h-0.821c-0.906-2.045-2.245-3.868-3.925-5.344l-0.747-0.651c2.797-2.358 6.346-3.637 10.005-3.605 3.652-0.008 7.188 1.286 9.973 3.648-0.066 0.057-0.133 0.114-0.201 0.17-0.171 0.144-0.343 0.288-0.503 0.449-1.681 1.473-3.024 3.292-3.936 5.333h-0.821c-0.283 0-0.554 0.112-0.754 0.312s-0.312 0.471-0.312 0.754 0.112 0.554 0.312 0.754c0.2 0.2 0.471 0.312 0.754 0.312h0.075c-0.292 1.045-0.478 2.117-0.555 3.2h-0.587c-0.283 0-0.554 0.112-0.754 0.312s-0.312 0.471-0.312 0.754 0.112 0.554 0.312 0.754c0.2 0.2 0.471 0.312 0.754 0.312h0.587c0.077 1.083 0.263 2.155 0.555 3.2h-0.075c-0.283 0-0.554 0.112-0.754 0.312s-0.312 0.471-0.312 0.754 0.112 0.554 0.312 0.754c0.2 0.2 0.471 0.312 0.754 0.312h0.821zM28.24 5.067c-0.286 0.228-0.56 0.47-0.821 0.725-1.223 1.076-2.238 2.367-2.997 3.808 0.283 0 0.554 0.112 0.754 0.312s0.312 0.471 0.312 0.754-0.112 0.554-0.312 0.754c-0.2 0.2-0.471 0.312-0.754 0.312h-0.928c-0.339 1.037-0.551 2.112-0.629 3.2h0.48c0.283 0 0.554 0.112 0.754 0.312s0.312 0.471 0.312 0.754c0 0.283-0.112 0.554-0.312 0.754s-0.471 0.312-0.754 0.312h-0.48c0.081 1.088 0.292 2.162 0.629 3.2h0.917c0.283 0 0.554 0.112 0.754 0.312s0.312 0.471 0.312 0.754c0 0.283-0.112 0.554-0.312 0.754s-0.471 0.312-0.754 0.312c0.76 1.45 1.767 2.757 2.976 3.861 0.277 0.256 0.565 0.491 0.853 0.725l0 0c2.827-2.961 4.411-6.893 4.427-10.986 0.007-4.082-1.581-8.006-4.427-10.933zM8.922 9.6c-0.739-1.424-1.729-2.703-2.923-3.776-0.277-0.267-0.565-0.512-0.864-0.757-2.856 2.924-4.459 6.846-4.469 10.933 0.016 4.094 1.6 8.025 4.427 10.986 0.29-0.224 0.567-0.462 0.832-0.715 1.221-1.103 2.236-2.414 2.997-3.872-0.283 0-0.554-0.112-0.754-0.312s-0.312-0.471-0.312-0.754 0.112-0.554 0.312-0.754c0.2-0.2 0.471-0.312 0.754-0.312h0.917c0.337-1.038 0.549-2.112 0.629-3.2h-0.469c-0.283 0-0.554-0.112-0.754-0.312s-0.312-0.471-0.312-0.754 0.112-0.554 0.312-0.754c0.2-0.2 0.471-0.312 0.754-0.312h0.469c-0.079-1.088-0.29-2.163-0.629-3.2h-0.917c-0.283 0-0.554-0.112-0.754-0.312s-0.312-0.471-0.312-0.754c0-0.283 0.112-0.554 0.312-0.754s0.471-0.312 0.754-0.312z"></path>
</symbol>
<symbol id="gb-volleyball" viewBox="0 0 33 32">
<path d="M6.774 3.412c-3.694 2.906-6.072 7.406-6.107 12.471 2.413 2.19 5.676 3.255 8.975 2.839-3.064-4.734-3.901-10.271-2.867-15.31zM16.255 0c-2.582 0.066-5.011 0.74-7.147 1.885-1.692 5.314-0.99 11.425 2.505 16.406 1.803-0.569 3.447-1.59 4.775-2.99-3.329-4.552-3.379-10.712-0.133-15.301zM18.123 16.18c-4.402 5.048-11.814 5.949-17.277 2.225 0.417 2.777 1.546 5.318 3.196 7.433v0.001c8.334 1.911 16.65-2.126 20.588-9.191-2.149-0.825-4.416-0.94-6.506-0.467zM26.321 17.464c-3.94 7.171-11.804 11.455-20.15 10.62 2.809 2.44 6.479 3.916 10.498 3.916 6.342 0 11.81-3.671 14.4-9.007-0.887-2.228-2.525-4.217-4.748-5.529zM32.289 12.498v-0.001c-4.764-3.792-10.873-4.953-16.461-3.478 0.251 1.906 0.99 3.727 2.148 5.274 5.629-1.155 11.246 1.502 14.020 6.324 0.439-1.462 0.675-3.014 0.675-4.62 0-1.202-0.132-2.373-0.383-3.499zM18.573 0.107c-1.675 1.89-2.726 4.338-2.833 7 5.145-1.251 10.779-0.507 15.57 2.413-2.238-5.063-7.022-8.738-12.737-9.413z"></path>
</symbol>
<symbol id="gb-tennis" viewBox="0 0 33 32">
<path d="M27.247 4.009c-2.822-2.494-6.528-4.009-10.582-4.009-5.107 0-9.662 2.405-12.593 6.142-0.078 0.099-0.041 0.247 0.074 0.298 2.653 1.176 6.218 1.841 9.967 1.841 6.531 0 11.366-1.934 13.151-3.997 0.070-0.081 0.063-0.204-0.017-0.275z"></path>
<path d="M31.074 22.302c-0.001 0-0.002 0-0.003 0-4.825 0-9.4 1.294-12.882 3.643-2.335 1.575-3.948 3.506-4.659 5.515-0.040 0.113 0.028 0.237 0.146 0.259 0.969 0.184 1.969 0.28 2.991 0.28 6.48 0 12.071-3.872 14.585-9.424 0.058-0.128-0.037-0.274-0.177-0.274z"></path>
<path d="M29.447 6.385c-0.072-0.095-0.213-0.104-0.295-0.017-2.715 2.862-8.486 4.712-15.037 4.712-4.316 0-8.464-0.824-11.522-2.275-0.096-0.046-0.211-0.007-0.259 0.088-1.067 2.142-1.667 4.556-1.667 7.107 0 6.67 4.102 12.399 9.916 14.798 0.104 0.043 0.223-0.013 0.259-0.12 0.889-2.632 2.889-5.102 5.782-7.053 3.94-2.658 9.071-4.121 14.447-4.121 0.348 0 0.694 0.007 1.040 0.018 0.094 0.003 0.178-0.061 0.198-0.153 0.234-1.086 0.358-2.213 0.358-3.369 0-3.606-1.2-6.936-3.22-9.615z"></path>
</symbol>
<symbol id="gb-football" viewBox="0 0 33 32">
<path d="M11.594 13.253l4.15-3.112 0.020-4.424-5.711-4.206c-1.836 0.84-3.508 2.024-4.919 3.502l2.096 6.736 4.365 1.503z"></path>
<path d="M12.841 14.661l1.36 4.143h4.996l1.421-4.056-3.953-2.955-3.824 2.868z"></path>
<path d="M22.474 15.134l-1.565 4.466 2.564 4.198 7.067 0.033c0.471-0.833 0.891-1.706 1.214-2.644 0.37-1.075 0.677-2.162 0.811-3.248l-5.806-4.173-4.284 1.368z"></path>
<path d="M17.62 10.163l4.267 3.19 4.307-1.375 2.26-6.727c-1.404-1.545-3.126-2.83-5.112-3.742l-5.701 4.172-0.021 4.483z"></path>
<path d="M3.701 6.731c-0.874 1.221-1.594 2.581-2.107 4.071s-0.863 3.005-0.927 4.505l4.705-3.204-1.671-5.372z"></path>
<path d="M12.538 19.748l-1.549-4.72-4.372-1.505-5.88 4.018c0.22 2.22 0.985 4.355 2.068 6.276l7.001-0.028 2.733-4.042z"></path>
<path d="M21.982 30.992c2.871-1.020 5.444-2.826 7.339-5.291l-5.641-0.026-1.698 5.317z"></path>
<path d="M14.171 20.681l-2.835 4.194 2.143 6.731c1.061 0.218 2.125 0.394 3.18 0.394 1.075 0 2.128-0.204 3.165-0.416l2.13-6.671-2.585-4.232h-5.199z"></path>
<path d="M21.225 0.731c-3.346-0.998-5.917-0.948-9.079-0.006l4.529 3.336 4.55-3.329z"></path>
<path d="M4.023 25.69c1.808 2.366 4.294 4.248 7.295 5.318l-1.7-5.34-5.595 0.022z"></path>
<path d="M32.663 15.693c-0.063-3.12-1.106-6.126-2.83-8.664l-1.797 5.348 4.627 3.316z"></path>
</symbol>
<symbol id="gb-star" viewBox="0 0 35 32">
<path d="M32.298 10.551l-9.007-1.31-4.021-8.16c-0.191-0.329-0.465-0.602-0.795-0.791s-0.703-0.289-1.083-0.289c-0.38 0-0.754 0.1-1.083 0.289s-0.604 0.462-0.795 0.791l-4.021 8.162-9.007 1.308c-0.386 0.055-0.748 0.218-1.046 0.468s-0.52 0.58-0.641 0.951c-0.121 0.37-0.135 0.767-0.042 1.146s0.291 0.723 0.57 0.995l6.516 6.353-1.538 8.972c-0.066 0.384-0.023 0.778 0.124 1.139s0.391 0.673 0.706 0.902c0.315 0.229 0.688 0.365 1.076 0.393s0.777-0.053 1.121-0.234l8.060-4.238 8.056 4.233c0.345 0.181 0.733 0.262 1.121 0.234s0.761-0.164 1.076-0.393c0.315-0.229 0.56-0.541 0.706-0.902s0.19-0.755 0.124-1.139l-1.538-8.972 6.52-6.349c0.278-0.272 0.475-0.616 0.568-0.994s0.079-0.774-0.041-1.144c-0.12-0.37-0.341-0.699-0.639-0.95s-0.659-0.414-1.044-0.47l-0.004-0.002z"></path>
</symbol>
<symbol id="gb-cycling" viewBox="0 0 36 32">
  <path d="M10.7 27.867c-0.826 0.635-1.847 1.028-2.968 1.028-2.7 0-4.897-2.197-4.897-4.897s2.197-4.898 4.897-4.898c2.038 0 3.785 1.253 4.522 3.027l1.533-1.59c-1.208-2.108-3.453-3.545-6.056-3.545-3.869 0-7.005 3.136-7.005 7.005s3.136 7.005 7.005 7.005c1.82 0 3.463-0.712 4.709-1.85-0.478-0.161-0.932-0.415-1.319-0.788-0.16-0.154-0.298-0.323-0.422-0.497z"/>
  <path d="M21.338 17.047l-3.709-2.154c1.654-1.035 1.041-0.652 2.695-1.687l-0.052 0.527c-0.089 0.897 0.572 1.718 1.404 1.886 0.020 0.004 6.512 1.107 6.748 1.107 0.843 0 1.588-0.609 1.73-1.469 0.159-0.957-0.488-1.862-1.445-2.020l-4.779-0.794 0.227-2.281c0.229-1.457 0.329-1.914-0.216-2.784l-0.684-1.094c-0.884-1.411-2.747-1.843-4.162-0.957l-7.487 4.688c-1.839 1.151-2.736 3.579-1.234 5.365 0.587 0.698 6.289 4.202 6.289 4.202l-4.618 4.791c-0.808 0.838-0.784 2.172 0.054 2.98 0.409 0.394 0.936 0.591 1.463 0.591 0.552 0 1.104-0.215 1.517-0.645l6.717-6.966c0.948-0.981 0.725-2.598-0.458-3.285z"/>
  <path d="M29.204 7.478c1.642-1.029 2.14-3.193 1.112-4.834-1.028-1.643-3.192-2.14-4.834-1.112s-2.139 3.191-1.112 4.832c1.028 1.643 3.192 2.141 4.834 1.114z"/>
  <path d="M28.633 16.993c-3.91 0-7.005 3.225-7.005 7.005 0 3.869 3.136 7.005 7.005 7.005s7.005-3.136 7.005-7.005c0-3.869-3.136-7.005-7.005-7.005zM28.633 28.896c-2.7 0-4.897-2.197-4.897-4.897s2.197-4.898 4.897-4.898c2.7 0 4.897 2.197 4.897 4.898s-2.197 4.897-4.897 4.897z"/>
</symbol>
  <symbol id="gb-search" viewBox="0 0 32 32">
    <path stroke-linejoin="round" stroke-linecap="round" stroke-miterlimit="4" stroke-width="3" d="M29.334 29.334l-8.459-8.459"/>
    <path stroke-linejoin="round" stroke-linecap="round" stroke-miterlimit="4" stroke-width="3" d="M13.335 24c5.891 0 10.667-4.776 10.667-10.667s-4.776-10.667-10.667-10.667c-5.891 0-10.667 4.776-10.667 10.667s4.776 10.667 10.667 10.667z"/>
  </symbol>
  <symbol id="gb-paginationArrow" viewBox="0 0 18 32">
    <path d="M2.509 31.413c-0.338 0-0.676-0.124-0.942-0.391-0.516-0.516-0.516-1.369 0-1.884l11.591-11.591c0.853-0.853 0.853-2.24 0-3.093l-11.591-11.591c-0.516-0.516-0.516-1.369 0-1.884s1.369-0.516 1.884 0l11.591 11.591c0.907 0.907 1.422 2.133 1.422 3.431s-0.498 2.524-1.422 3.431l-11.591 11.591c-0.267 0.249-0.604 0.391-0.942 0.391z"/>
  </symbol>
  <symbol id="gb-double-right" viewBox="0 0 36 32">
    <path fill="transparent" stroke-linejoin="round" stroke-linecap="round" stroke-miterlimit="10" stroke-width="5.3333" d="M21.333 27.022l9.659-9.659c1.141-1.141 1.141-3.007 0-4.148l-9.659-9.659"/>
    <path fill="transparent" stroke-linejoin="round" stroke-linecap="round" stroke-miterlimit="10" stroke-width="5.3333" d="M3.556 27.022l9.659-9.659c1.141-1.141 1.141-3.007 0-4.148l-9.659-9.659"/>
  </symbol>
  <symbol id="gb-note" viewBox="0 0 32 32">
    <path d="M5.12 18.067c-0.147-0.347-0.28-0.72-0.413-1.12l-0.693-2.107c-1.707-5.293-0.28-8.080 5.013-9.8l5.267-1.707c5.293-1.707 8.093-0.293 9.8 5l0.68 2.053c-0.64-0.253-1.373-0.467-2.2-0.667l-5.587-1.307c-6.28-1.467-9.747 0.68-11.24 6.96l-0.533 2.24c-0.040 0.147-0.067 0.307-0.093 0.453z"/>
    <path d="M27.719 22.893l0.52-2.227c1.053-4.453 0.187-7.107-3.040-8.667-0.813-0.4-1.8-0.72-2.933-0.987l-5.587-1.307c-5.573-1.307-8.32 0.413-9.64 5.973l-0.533 2.24c-0.187 0.773-0.307 1.493-0.36 2.16-0.4 4.16 1.547 6.373 6.36 7.493l5.573 1.307c5.573 1.307 8.333-0.4 9.64-5.987z"/>
  </symbol>
  <symbol id="gb-document-download" viewBox="0 0 32 32">
    <path d="M27.336 13.586h-3.853c-3.16 0-5.733-2.573-5.733-5.733v-3.853c0-0.733-0.6-1.333-1.333-1.333h-5.653c-4.107 0-7.427 2.667-7.427 7.427v11.813c0 4.76 3.32 7.427 7.427 7.427h10.48c4.107 0 7.427-2.667 7.427-7.427v-6.987c0-0.733-0.6-1.333-1.333-1.333zM16.376 21.040l-2.667 2.667c-0.093 0.093-0.213 0.173-0.333 0.213-0.12 0.053-0.24 0.080-0.373 0.080s-0.253-0.027-0.373-0.080c-0.107-0.040-0.213-0.12-0.293-0.2-0.013-0.013-0.027-0.013-0.027-0.027l-2.667-2.667c-0.387-0.387-0.387-1.027 0-1.413s1.027-0.387 1.413 0l0.947 0.973v-5.587c0-0.547 0.453-1 1-1s1 0.453 1 1v5.587l0.96-0.96c0.387-0.387 1.027-0.387 1.413 0s0.387 1.027 0 1.413z"/>
    <path d="M23.237 11.747c1.267 0.013 3.027 0.013 4.533 0.013 0.76 0 1.16-0.893 0.627-1.427-1.92-1.933-5.36-5.413-7.333-7.387-0.547-0.547-1.493-0.173-1.493 0.587v4.653c0 1.947 1.653 3.56 3.667 3.56z"/>
  </symbol>
  <symbol id="gb-sidebar-bottom" viewBox="0 0 32 32">
    <path d="M4.066 26.493c0.387 0.56 0.88 1.053 1.44 1.44 1.267 0.92 2.92 1.4 4.907 1.4h11.173c4.587 0 7.427-2.587 7.707-6.96h-26.6c0.107 1.64 0.573 3.027 1.373 4.12z"/>
    <path d="M27.933 5.507c-0.387-0.56-0.88-1.053-1.44-1.44-1.267-0.92-2.92-1.4-4.907-1.4h-11.173c-4.853 0-7.747 2.893-7.747 7.747v9.96h26.667v-9.96c0-1.987-0.48-3.64-1.4-4.907zM20.12 12.747l-3.413 3.413c-0.387 0.387-1.027 0.387-1.413 0l-3.413-3.413c-0.2-0.2-0.293-0.453-0.293-0.707s0.093-0.52 0.293-0.707c0.387-0.4 1.027-0.4 1.413 0l2.707 2.693 2.707-2.707c0.387-0.387 1.027-0.387 1.413 0s0.387 1.027 0 1.427z"/>
  </symbol>
  <symbol id="gb-gear" viewBox="0 0 34 32">
    <path d="M28.96 11.552c-2.896 0-4.080-2.048-2.64-4.56 0.832-1.456 0.336-3.312-1.12-4.144l-2.768-1.584c-1.264-0.752-2.896-0.304-3.648 0.96l-0.176 0.304c-1.44 2.512-3.808 2.512-5.264 0l-0.176-0.304c-0.72-1.264-2.352-1.712-3.616-0.96l-2.768 1.584c-1.456 0.832-1.952 2.704-1.12 4.16 1.456 2.496 0.272 4.544-2.624 4.544-1.664 0-3.040 1.36-3.040 3.040v2.816c0 1.664 1.36 3.040 3.040 3.040 2.896 0 4.080 2.048 2.624 4.56-0.832 1.456-0.336 3.312 1.12 4.144l2.768 1.584c1.264 0.752 2.896 0.304 3.648-0.96l0.176-0.304c1.44-2.512 3.808-2.512 5.264 0l0.176 0.304c0.752 1.264 2.384 1.712 3.648 0.96l2.768-1.584c1.456-0.832 1.952-2.704 1.12-4.144-1.456-2.512-0.272-4.56 2.624-4.56 1.664 0 3.040-1.36 3.040-3.040v-2.816c-0.016-1.664-1.376-3.040-3.056-3.040zM16 21.2c-2.864 0-5.2-2.336-5.2-5.2s2.336-5.2 5.2-5.2 5.2 2.336 5.2 5.2c0 2.864-2.336 5.2-5.2 5.2z"/>
  </symbol>
</defs>
</svg>
